<svg width="24" height="16" viewBox="0 0 24 16" fill="none" xmlns="http://www.w3.org/2000/svg">
<rect x="0.166667" y="0.166667" width="23" height="15.6667" rx="1.16667" fill="#1F72CD" stroke="#D9D9D9" stroke-width="0.333333"/>
<path fill-rule="evenodd" clip-rule="evenodd" d="M4.45473 5.6665L2.33398 10.4977H4.87281L5.18755 9.72738H5.90698L6.22172 10.4977H9.01625V9.90976L9.26526 10.4977H10.7108L10.9598 9.89733V10.4977H16.7717L17.4784 9.74738L18.1401 10.4977L21.1252 10.5039L18.9978 8.09557L21.1252 5.6665H18.1864L17.4985 6.40292L16.8576 5.6665H10.535L9.99212 6.91347L9.43646 5.6665H6.90294V6.23441L6.6211 5.6665H4.45473ZM13.1336 6.35254H16.471L17.4918 7.48759L18.5454 6.35254H19.5662L18.0153 8.09489L19.5662 9.81717H18.4992L17.4784 8.66893L16.4193 9.81717H13.1336V6.35254ZM13.9577 7.70315V7.07031V7.0697H16.0402L16.9489 8.08178L15.9999 9.09938H13.9577V8.4085H15.7784V7.70315H13.9577ZM4.94597 6.35254H6.18352L7.5902 9.62857V6.35254H8.94588L10.0324 8.70144L11.0337 6.35254H12.3826V9.81921H11.5618L11.5551 7.10275L10.3585 9.81921H9.62431L8.421 7.10275V9.81921H6.73247L6.41236 9.04203H4.68291L4.36346 9.81853H3.45876L4.94597 6.35254ZM4.97821 8.32357L5.54799 6.93908L6.11712 8.32357H4.97821Z" fill="white"/>
</svg>
