<svg width="24" height="24" viewBox="0 0 24 24" fill="none" xmlns="http://www.w3.org/2000/svg">
<path d="M16.5312 19.5308L23.5312 12.5308C23.8242 12.2378 23.8242 11.7612 23.5312 11.4683L16.5312 4.46826C16.2383 4.17725 15.7617 4.17725 15.4688 4.46826C15.1758 4.76123 15.1758 5.23779 15.4688 5.53076L21.1892 11.2495H1C0.585938 11.2495 0.25 11.5854 0.25 11.9995C0.25 12.4136 0.585938 12.7495 1 12.7495H21.1892L15.4688 18.4683C15.3223 18.6147 15.25 18.8081 15.25 18.9995C15.25 19.1909 15.3223 19.3843 15.4688 19.5308C15.7617 19.8218 16.2383 19.8218 16.5312 19.5308Z" fill="#9D193C"/>
</svg>
