<svg width="36" height="36" viewBox="0 0 36 36" fill="none" xmlns="http://www.w3.org/2000/svg">
<path d="M35.5811 17.6909L33.2021 9.36768C32.7012 7.60547 31.0723 6.375 29.2383 6.375H20.625V4.5C20.625 3.87891 20.1211 3.375 19.5 3.375H1.5C0.878906 3.375 0.375 3.87891 0.375 4.5V25.5C0.375 25.8794 0.56543 26.2324 0.881836 26.4404L5.12732 29.2236C5.75592 31.1887 7.57782 32.625 9.75 32.625C11.7748 32.625 13.5121 31.3848 14.248 29.625H21.7522C22.4881 31.3848 24.2252 32.625 26.25 32.625C28.2748 32.625 30.0121 31.3848 30.748 29.625H31.5C33.7734 29.625 35.625 27.7749 35.625 25.5V18C35.625 17.896 35.6104 17.792 35.5811 17.6909ZM31.04 9.98438L33.0084 16.875H28.5C27.4658 16.875 26.625 16.0342 26.625 15V8.625H29.2383C30.0703 8.625 30.8115 9.18311 31.04 9.98438ZM9.75 30.375C8.30273 30.375 7.125 29.1973 7.125 27.75C7.125 26.3027 8.30273 25.125 9.75 25.125C11.1973 25.125 12.375 26.3027 12.375 27.75C12.375 29.1973 11.1973 30.375 9.75 30.375ZM26.25 30.375C24.8027 30.375 23.625 29.1973 23.625 27.75C23.625 26.3027 24.8027 25.125 26.25 25.125C27.6973 25.125 28.875 26.3027 28.875 27.75C28.875 29.1973 27.6973 30.375 26.25 30.375ZM31.5 27.375H31.0871C30.8919 24.8646 28.8109 22.875 26.25 22.875C23.6891 22.875 21.6081 24.8646 21.4129 27.375H14.5871C14.3919 24.8646 12.3109 22.875 9.75 22.875C7.49963 22.875 5.62079 24.4142 5.06122 26.4891L2.625 24.8921V5.625H18.375V19.5C18.375 20.1211 18.8789 20.625 19.5 20.625C20.1211 20.625 20.625 20.1211 20.625 19.5V8.625H24.375V15C24.375 17.2749 26.2266 19.125 28.5 19.125H33.375V25.5C33.375 26.5342 32.5342 27.375 31.5 27.375Z" fill="#9D193C"/>
</svg>
