<svg width="14" height="14" viewBox="0 0 14 14" fill="none" xmlns="http://www.w3.org/2000/svg">
<path d="M12.25 0.145996H1.75C1.50846 0.145996 1.3125 0.34196 1.3125 0.583496V5.25016C1.3125 5.36637 1.35807 5.47746 1.4401 5.55949L4.8125 8.93132V13.4168C4.8125 13.5575 4.87972 13.6897 4.99365 13.7717C5.06999 13.8264 5.15885 13.8543 5.25 13.8543C5.29671 13.8543 5.34342 13.8469 5.38786 13.8321L8.88786 12.6654C9.06673 12.6056 9.1875 12.4387 9.1875 12.2502V8.93132L12.5599 5.55949C12.6419 5.47746 12.6875 5.36637 12.6875 5.25016V0.583496C12.6875 0.34196 12.4915 0.145996 12.25 0.145996ZM11.8125 1.021V2.47933H2.1875V1.021H11.8125ZM8.4401 8.44084C8.35807 8.52287 8.3125 8.63395 8.3125 8.75016V11.9346L5.6875 12.8096V8.75016C5.6875 8.63395 5.64193 8.52287 5.5599 8.44084L2.1875 5.06901V3.35433H11.8125V5.06901L8.4401 8.44084Z" fill="black"/>
</svg>
