<svg width="36" height="36" viewBox="0 0 36 36" fill="none" xmlns="http://www.w3.org/2000/svg">
<path d="M18 0.375C9.93457 0.375 3.375 6.93604 3.375 15C3.375 23.1211 10.0664 29.5942 17.2969 35.3789C17.502 35.543 17.751 35.625 18 35.625C18.249 35.625 18.498 35.543 18.7031 35.3789C25.9336 29.5942 32.625 23.1211 32.625 15C32.625 6.93604 26.0654 0.375 18 0.375ZM18 33.0557C11.4844 27.7705 5.625 21.9229 5.625 15C5.625 8.17676 11.1768 2.625 18 2.625C24.8232 2.625 30.375 8.17676 30.375 15C30.375 21.9229 24.5156 27.7705 18 33.0557Z" fill="#9D193C"/>
<path d="M18 7.875C14.0713 7.875 10.875 11.0713 10.875 15C10.875 18.9287 14.0713 22.125 18 22.125C21.9287 22.125 25.125 18.9287 25.125 15C25.125 11.0713 21.9287 7.875 18 7.875ZM18 19.875C15.3105 19.875 13.125 17.688 13.125 15C13.125 12.312 15.3105 10.125 18 10.125C20.6895 10.125 22.875 12.312 22.875 15C22.875 17.688 20.6895 19.875 18 19.875Z" fill="#9D193C"/>
</svg>
