<svg width="24" height="16" viewBox="0 0 24 16" fill="none" xmlns="http://www.w3.org/2000/svg">
<rect x="0.166667" y="0.166667" width="23" height="15.6667" rx="1.16667" fill="white" stroke="#D9D9D9" stroke-width="0.333333"/>
<path d="M14.7852 3.3335C17.2973 3.33369 19.3338 5.39376 19.334 7.93506C19.334 10.4766 17.2974 12.5374 14.7852 12.5376C13.6589 12.5376 12.6284 12.1228 11.834 11.437C11.0395 12.1228 10.0091 12.5376 8.88281 12.5376C6.37053 12.5374 4.33398 10.4765 4.33398 7.93506C4.33421 5.39376 6.37067 3.33369 8.88281 3.3335C10.0089 3.3335 11.0396 3.74752 11.834 4.43311C12.6284 3.74752 13.6591 3.3335 14.7852 3.3335Z" fill="#ED0006"/>
<path d="M14.7852 3.3335C17.2973 3.33369 19.3338 5.39376 19.334 7.93506C19.334 10.4766 17.2974 12.5374 14.7852 12.5376C13.6589 12.5376 12.6284 12.1228 11.834 11.437C12.8118 10.5929 13.4326 9.33734 13.4326 7.93506C13.4325 6.53275 12.8119 5.27711 11.834 4.43311C12.6284 3.74752 13.6591 3.3335 14.7852 3.3335Z" fill="#F9A000"/>
<path d="M11.834 4.43408C12.8119 5.2781 13.4325 6.53278 13.4326 7.93506C13.4326 9.33731 12.8118 10.5919 11.834 11.436C10.8567 10.592 10.2363 9.33694 10.2363 7.93506C10.2364 6.53316 10.8565 5.2781 11.834 4.43408Z" fill="#FF5E00"/>
</svg>
