<svg width="36" height="36" viewBox="0 0 36 36" fill="none" xmlns="http://www.w3.org/2000/svg">
<g clip-path="url(#clip0_366_1488)">
<path d="M35.0391 9.5127L18.5391 0.512695C18.2051 0.328125 17.7949 0.328125 17.4609 0.512695L0.960938 9.5127C0.600586 9.70898 0.375 10.0884 0.375 10.5V25.5C0.375 25.9116 0.600586 26.291 0.960938 26.4873L17.4609 35.4873C17.6279 35.5796 17.8154 35.625 18 35.625C18.1846 35.625 18.3721 35.5796 18.5391 35.4873L35.0391 26.4873C35.3994 26.291 35.625 25.9116 35.625 25.5V10.5C35.625 10.0884 35.3994 9.70898 35.0391 9.5127ZM18 18.2183L12.0994 14.9998L26.2496 7.28156L32.1506 10.5002L18 18.2183ZM18 2.78174L23.9006 6.00018L9.75018 13.7186L3.84943 10.5002L18 2.78174ZM2.625 12.395L16.875 20.1678V32.6047L2.625 24.832V12.395ZM19.125 32.6047V20.1678L33.375 12.395V24.832L19.125 32.6047Z" fill="#9D193C"/>
</g>
<defs>
<clipPath id="clip0_366_1488">
<rect width="36" height="36" fill="white"/>
</clipPath>
</defs>
</svg>
