<svg width="24" height="24" viewBox="0 0 24 24" fill="none" xmlns="http://www.w3.org/2000/svg">
<g clip-path="url(#clip0_355_1369)">
<path d="M9.99951 0.25C15.3765 0.25 19.7495 4.62402 19.7495 10C19.7495 12.4174 18.8328 14.6041 17.3707 16.3097L23.5308 22.4697C23.8218 22.7627 23.8218 23.2373 23.5308 23.5303C23.3843 23.6768 23.1909 23.75 22.9995 23.75C22.8081 23.75 22.6147 23.6768 22.4683 23.5303L16.3092 17.3712C14.6038 18.8333 12.4171 19.75 9.99951 19.75C4.62256 19.75 0.249512 15.376 0.249512 10C0.249512 4.62402 4.62256 0.25 9.99951 0.25ZM9.99951 18.25C14.5483 18.25 18.2495 14.5488 18.2495 10C18.2495 5.45117 14.5483 1.75 9.99951 1.75C5.45068 1.75 1.74951 5.45117 1.74951 10C1.74951 14.5488 5.45068 18.25 9.99951 18.25Z" fill="black"/>
</g>
<defs>
<clipPath id="clip0_355_1369">
<rect width="24" height="24" fill="white" transform="matrix(-1 0 0 1 24 0)"/>
</clipPath>
</defs>
</svg>
