<svg width="24" height="16" viewBox="0 0 24 16" fill="none" xmlns="http://www.w3.org/2000/svg">
<rect x="0.166667" y="0.166667" width="23" height="15.6667" rx="1.16667" fill="white" stroke="#D9D9D9" stroke-width="0.333333"/>
<path d="M10 15.3333L22.6667 11.5V14.6667C22.6667 15.0349 22.3682 15.3333 22 15.3333H10Z" fill="#FD6020"/>
<path d="M10.1221 6.07355C10.366 6.07355 10.6454 6.10997 10.8545 6.25324V6.96906C10.6803 6.75415 10.4008 6.61066 10.1221 6.61066C9.5649 6.64665 9.11193 7.14824 9.14648 7.72101V7.79328C9.14657 8.36626 9.59982 8.79617 10.1572 8.79621C10.436 8.79621 10.6803 8.65272 10.8545 8.43781V9.1546C10.6107 9.26202 10.3665 9.33327 10.0879 9.33332C9.21688 9.33332 8.51963 8.58122 8.51953 7.68585C8.51953 6.75473 9.21634 6.00217 10.1221 6.07355ZM15.5928 8.22296L16.4287 6.07355H17.0566L15.7666 9.33332H15.4531L14.1641 6.07355H14.791L15.5928 8.22296ZM7.33496 6.00226C7.64855 6.00226 7.96215 6.14575 8.20605 6.36066L7.89258 6.79035C7.75321 6.64707 7.57851 6.53937 7.4043 6.53937C7.19541 6.50384 7.02115 6.68299 6.98633 6.89777C6.98637 7.07675 7.09124 7.14813 7.43945 7.29132C8.13632 7.57787 8.31086 7.79315 8.3457 8.22296V8.33039C8.31086 8.90347 7.8573 9.333 7.2998 9.29718C6.88187 9.29706 6.46392 9.08255 6.25488 8.68878L6.6377 8.29425C6.74222 8.54498 6.98688 8.72394 7.26562 8.72394H7.2998C7.50877 8.72394 7.71855 8.50967 7.71875 8.2591C7.71875 8.11589 7.6484 8.00847 7.54395 7.93683C7.40457 7.8652 7.26535 7.79296 7.12598 7.75714C6.56854 7.57807 6.39456 7.32752 6.39453 6.89777V6.86164C6.42948 6.3603 6.84724 5.96647 7.33496 6.00226ZM3.71094 6.07355C4.54692 6.10936 5.20921 6.8256 5.1748 7.68488C5.1748 8.15044 4.96553 8.58128 4.61719 8.90363C4.30365 9.15423 3.92028 9.29686 3.53711 9.26105H2.66602V6.07355H3.71094ZM6.01074 9.26203H5.41895V6.07355H6.01074V9.26203ZM19.0078 6.61066H17.9277V7.32746H18.9727V7.86457H17.9277V8.72394H19.0078V9.26203H17.335V6.07355H19.0078V6.61066ZM20.2617 6.07355C20.9585 6.07355 21.3417 6.39648 21.3418 7.00519C21.3764 7.47066 21.0625 7.86424 20.6445 7.93585L21.5859 9.26105H20.8545L20.0527 7.97199H19.9834V9.26105H19.3906V6.07355H20.2617ZM3.43262 6.61066H3.25879V8.72394H3.43262C3.71135 8.75974 4.02532 8.65205 4.23438 8.47296C4.44303 8.25816 4.54781 7.97173 4.54785 7.64972C4.54778 7.36339 4.44319 7.07644 4.23438 6.86164C4.02534 6.68265 3.71127 6.57489 3.43262 6.61066ZM19.9834 7.5423H20.1572C20.5405 7.54228 20.7148 7.36269 20.7148 7.04035C20.7146 6.75416 20.5402 6.57552 20.1572 6.5755H19.9834V7.5423Z" fill="black"/>
<path fill-rule="evenodd" clip-rule="evenodd" d="M12.6321 6C11.761 6 11.0293 6.71636 11.0293 7.64763C11.0293 8.54308 11.7262 9.29525 12.6321 9.33107C13.538 9.36689 14.2349 8.61471 14.2697 7.68344C14.2349 6.75218 13.538 6 12.6321 6V6Z" fill="#FD6020"/>
</svg>
