<svg width="24" height="24" viewBox="0 0 24 24" fill="none" xmlns="http://www.w3.org/2000/svg">
<g clip-path="url(#clip0_1162_297)">
<path d="M23 11.25H12.75V1C12.75 0.585938 12.4141 0.25 12 0.25C11.5859 0.25 11.25 0.585938 11.25 1V11.25H1C0.585938 11.25 0.25 11.5859 0.25 12C0.25 12.4141 0.585938 12.75 1 12.75H11.25V23C11.25 23.4141 11.5859 23.75 12 23.75C12.4141 23.75 12.75 23.4141 12.75 23V12.75H23C23.4141 12.75 23.75 12.4141 23.75 12C23.75 11.5859 23.4141 11.25 23 11.25Z" fill="black"/>
</g>
<defs>
<clipPath id="clip0_1162_297">
<rect width="24" height="24" fill="white"/>
</clipPath>
</defs>
</svg>
