<svg width="40" height="40" viewBox="0 0 40 40" fill="none" xmlns="http://www.w3.org/2000/svg">
<path d="M36.2468 11.5884C36.2078 10.9292 35.6609 10.4165 35.0001 10.4165H29.5834V8.33317C29.5834 3.96794 26.032 0.416504 21.6667 0.416504H18.3334C13.9682 0.416504 10.4167 3.96794 10.4167 8.33317V10.4165H5.00007C4.33926 10.4165 3.79239 10.9292 3.75333 11.5884L2.08666 38.255C2.06387 38.6001 2.18757 38.937 2.42195 39.1893C2.65958 39.4399 2.98835 39.5832 3.3334 39.5832H36.6667C37.0118 39.5832 37.3406 39.4399 37.5782 39.1893C37.8126 38.937 37.9363 38.6001 37.9135 38.255L36.2468 11.5884ZM12.9167 8.33317C12.9167 5.34652 15.3451 2.9165 18.3334 2.9165H21.6667C24.655 2.9165 27.0834 5.34652 27.0834 8.33317V10.4165H12.9167V8.33317ZM4.66478 37.0832L6.1752 12.9165H10.4167V14.9998C10.4167 15.6899 10.9766 16.2498 11.6667 16.2498C12.3568 16.2498 12.9167 15.6899 12.9167 14.9998V12.9165H27.0834V14.9998C27.0834 15.6899 27.6433 16.2498 28.3334 16.2498C29.0235 16.2498 29.5834 15.6899 29.5834 14.9998V12.9165H33.8249L35.3354 37.0832H4.66478Z" fill="#717A3F"/>
<path d="M12.7275 25.4546H27.273" stroke="#717A3F" stroke-linecap="round"/>
<path d="M20 18.1816V32.7271" stroke="#717A3F" stroke-linecap="round"/>
</svg>
