<svg width="24" height="24" viewBox="0 0 24 24" fill="none" xmlns="http://www.w3.org/2000/svg">
<path d="M21.7477 6.95312C21.7243 6.55762 21.3961 6.25 20.9997 6.25H17.7497V5C17.7497 2.38086 15.6188 0.25 12.9997 0.25H10.9997C8.38051 0.25 6.24965 2.38086 6.24965 5V6.25H2.99965C2.60317 6.25 2.27504 6.55762 2.25161 6.95312L1.25161 22.9531C1.23793 23.1602 1.31215 23.3623 1.45278 23.5137C1.59536 23.6641 1.79262 23.75 1.99965 23.75H21.9997C22.2067 23.75 22.4039 23.6641 22.5465 23.5137C22.6872 23.3623 22.7614 23.1602 22.7477 22.9531L21.7477 6.95312ZM7.74965 5C7.74965 3.20801 9.20668 1.75 10.9997 1.75H12.9997C14.7926 1.75 16.2497 3.20801 16.2497 5V6.25H7.74965V5ZM2.79848 22.25L3.70473 7.75H6.24965V9C6.24965 9.41406 6.58559 9.75 6.99965 9.75C7.41371 9.75 7.74965 9.41406 7.74965 9V7.75H16.2497V9C16.2497 9.41406 16.5856 9.75 16.9997 9.75C17.4137 9.75 17.7497 9.41406 17.7497 9V7.75H20.2946L21.2008 22.25H2.79848Z" fill="black"/>
</svg>
