<svg width="24" height="24" viewBox="0 0 24 24" fill="none" xmlns="http://www.w3.org/2000/svg">
<path d="M21 4.25H16.75V3C16.75 1.4834 15.5156 0.25 14 0.25H10C8.48438 0.25 7.25 1.4834 7.25 3V4.25H3C2.58594 4.25 2.25 4.58594 2.25 5C2.25 5.41406 2.58594 5.75 3 5.75H3.25V21C3.25 22.5166 4.48438 23.75 6 23.75H18C19.5156 23.75 20.75 22.5166 20.75 21V5.75H21C21.4141 5.75 21.75 5.41406 21.75 5C21.75 4.58594 21.4141 4.25 21 4.25ZM8.75 3C8.75 2.31055 9.31055 1.75 10 1.75H14C14.6895 1.75 15.25 2.31055 15.25 3V4.25H8.75V3ZM19.25 21C19.25 21.6895 18.6895 22.25 18 22.25H6C5.31055 22.25 4.75 21.6895 4.75 21V5.75H19.25V21Z" fill="black"/>
<path d="M8 8.25C7.58594 8.25 7.25 8.58594 7.25 9V19C7.25 19.4141 7.58594 19.75 8 19.75C8.41406 19.75 8.75 19.4141 8.75 19V9C8.75 8.58594 8.41406 8.25 8 8.25Z" fill="black"/>
<path d="M12 8.25C11.5859 8.25 11.25 8.58594 11.25 9V19C11.25 19.4141 11.5859 19.75 12 19.75C12.4141 19.75 12.75 19.4141 12.75 19V9C12.75 8.58594 12.4141 8.25 12 8.25Z" fill="black"/>
<path d="M15.25 9V19C15.25 19.4141 15.5859 19.75 16 19.75C16.4141 19.75 16.75 19.4141 16.75 19V9C16.75 8.58594 16.4141 8.25 16 8.25C15.5859 8.25 15.25 8.58594 15.25 9Z" fill="black"/>
</svg>
