<svg width="24" height="24" viewBox="0 0 24 24" fill="none" xmlns="http://www.w3.org/2000/svg">
<g clip-path="url(#clip0_355_1368)">
<path d="M12 0.25C5.52148 0.25 0.25 5.52148 0.25 12C0.25 18.4785 5.52148 23.75 12 23.75C18.4785 23.75 23.75 18.4785 23.75 12C23.75 5.52148 18.4785 0.25 12 0.25ZM5.75 20.0656V20C5.75 17.1055 8.10547 14.75 11 14.75H13C15.8945 14.75 18.25 17.1055 18.25 20V20.0656C16.5145 21.4139 14.3632 22.25 12 22.25C9.63684 22.25 7.48547 21.4139 5.75 20.0656ZM12 13.25C10.207 13.25 8.75 11.792 8.75 10C8.75 8.20801 10.207 6.75 12 6.75C13.793 6.75 15.25 8.20801 15.25 10C15.25 11.792 13.793 13.25 12 13.25ZM19.6268 18.7816C19.1761 16.3273 17.3926 14.3589 15.0573 13.6047C16.0837 12.7328 16.75 11.4492 16.75 10C16.75 7.38086 14.6191 5.25 12 5.25C9.38086 5.25 7.25 7.38086 7.25 10C7.25 11.4492 7.91626 12.7328 8.94275 13.6047C6.60742 14.3589 4.82385 16.3273 4.37317 18.7816C2.76074 16.9701 1.75 14.6106 1.75 12C1.75 6.34766 6.34766 1.75 12 1.75C17.6523 1.75 22.25 6.34766 22.25 12C22.25 14.6106 21.2393 16.9701 19.6268 18.7816Z" fill="#09090B"/>
</g>
<defs>
<clipPath id="clip0_355_1368">
<rect width="24" height="24" fill="white"/>
</clipPath>
</defs>
</svg>
