<svg width="24" height="16" viewBox="0 0 24 16" fill="none" xmlns="http://www.w3.org/2000/svg">
<rect x="0.166667" y="0.166667" width="23" height="15.6667" rx="1.16667" fill="white" stroke="#D9D9D9" stroke-width="0.333333"/>
<path fill-rule="evenodd" clip-rule="evenodd" d="M7.08351 10.8387H5.66996L4.60997 6.79475C4.55966 6.60873 4.45283 6.44428 4.29569 6.36677C3.90354 6.17199 3.47141 6.01697 3 5.93879V5.7831H5.27711C5.59139 5.7831 5.8271 6.01697 5.86638 6.28859L6.41636 9.2056L7.82922 5.7831H9.20348L7.08351 10.8387ZM9.98917 10.8387H8.6542L9.75347 5.7831H11.0884L9.98917 10.8387ZM12.8156 7.18365C12.8549 6.91136 13.0906 6.75567 13.3656 6.75567C13.7977 6.71657 14.2684 6.79476 14.6613 6.98886L14.897 5.90038C14.5041 5.74469 14.072 5.6665 13.6798 5.6665C12.3841 5.6665 11.4413 6.36678 11.4413 7.33866C11.4413 8.07803 12.1092 8.46624 12.5806 8.70011C13.0906 8.93331 13.287 9.089 13.2477 9.3222C13.2477 9.672 12.8549 9.82769 12.4627 9.82769C11.9913 9.82769 11.5199 9.71109 11.0884 9.51631L10.8527 10.6055C11.3242 10.7996 11.8342 10.8778 12.3056 10.8778C13.7584 10.9162 14.6613 10.2166 14.6613 9.16651C14.6613 7.84415 12.8156 7.76664 12.8156 7.18365ZM19.3333 10.8387L18.2733 5.7831H17.1348C16.8991 5.7831 16.6634 5.93879 16.5848 6.17199L14.622 10.8387H15.9962L16.2705 10.1H17.9591L18.1162 10.8387H19.3333ZM17.3312 7.14456L17.7234 9.04992H16.6241L17.3312 7.14456Z" fill="#172B85"/>
</svg>
