<svg width="24" height="24" viewBox="0 0 24 24" fill="none" xmlns="http://www.w3.org/2000/svg">
<g clip-path="url(#clip0_937_6679)">
<path d="M13.063 12L23.5317 1.53125C23.8228 1.23828 23.8228 0.761719 23.5317 0.46875C23.2388 0.175781 22.7622 0.175781 22.4692 0.46875L12.0005 10.9375L1.53174 0.46875C1.23877 0.175781 0.762207 0.175781 0.469238 0.46875C0.178223 0.761719 0.178223 1.23828 0.469238 1.53125L10.938 12L0.469238 22.4688C0.178223 22.7617 0.178223 23.2383 0.469238 23.5312C0.615723 23.6777 0.809082 23.75 1.00049 23.75C1.19189 23.75 1.38525 23.6777 1.53174 23.5312L12.0005 13.0625L22.4692 23.5312C22.6157 23.6777 22.8091 23.75 23.0005 23.75C23.1919 23.75 23.3853 23.6777 23.5317 23.5312C23.8228 23.2383 23.8228 22.7617 23.5317 22.4688L13.063 12Z" fill="black"/>
</g>
<defs>
<clipPath id="clip0_937_6679">
<rect width="24" height="24" fill="white"/>
</clipPath>
</defs>
</svg>
